<svg width="93" height="82" viewBox="0 0 93 82" fill="none" xmlns="http://www.w3.org/2000/svg">
<path d="M87.12 29.2715L87.8563 21.0908L82.9844 20.6523L83.7149 12.5361L78.0582 12.027L78.558 6.47409L58.2305 4.64457L57.7307 10.1974L53.2614 9.79518L52.5309 17.9114L44.8471 17.2198L45.5714 9.17281L40.3409 8.70206L40.8408 3.14762L20.5149 1.31823L20.015 6.87267L14.7845 6.40191L14.0603 14.4489L9.2088 14.0123L8.47252 22.193L4.65895 21.8497L3.68106 32.7149L7.49462 33.0581L6.75848 41.2372L12.0236 41.7111L11.2873 49.8918L19.8328 50.6609L19.0965 58.8416L30.7967 59.8946L30.0604 68.0753L38.1876 68.8068L37.4513 76.9875L50.158 78.1311L50.8943 69.9504L57.6863 70.5617L58.4226 62.381L70.0835 63.4305L70.8198 55.2498L79.4046 56.0225L80.1409 47.8418L85.406 48.3157L86.1421 40.1366L89.9164 40.4763L90.8943 29.6111L87.12 29.2715Z" fill="#FFF3EB"/>
<path d="M70.6221 19.5689L62.5767 18.8448L61.8133 27.3259L69.8588 28.05L70.6221 19.5689Z" fill="#0E4486"/>
<path d="M77.9043 28.7783L69.8589 28.0542L69.0956 36.5352L77.141 37.2593L77.9043 28.7783Z" fill="#0E4486"/>
</svg>
