<svg width="294" height="103" viewBox="0 0 294 103" fill="none" xmlns="http://www.w3.org/2000/svg">
<rect width="288" height="78" transform="translate(6.76481) rotate(4.97542)" fill="white"/>
<path d="M28.6095 33.0189L39.3688 33.9556L39.1086 36.9443L28.3514 35.9837L28.3493 36.0076L25.3606 35.7475L27.0258 16.6198L30.0145 16.88L28.6095 33.0189ZM45.0549 31.6802C45.147 32.6518 45.5107 33.4544 46.1462 34.0879C46.7989 34.7068 47.6513 35.0621 48.7034 35.1537C50.393 35.3008 51.7888 34.7638 52.8909 33.5428L54.8024 35.1065C54.0781 36.2319 53.1563 37.043 52.037 37.5398C50.9177 38.0366 49.7204 38.2295 48.4453 38.1185C47.186 38.0089 46.0495 37.5967 45.0356 36.8821C44.0232 36.1516 43.2447 35.2245 42.7 34.1011C42.1728 32.9631 41.9646 31.7565 42.0756 30.4813C42.1866 29.2061 42.5995 28.0616 43.3141 27.0477C44.0446 26.0353 44.971 25.2647 46.093 24.7361C47.2165 24.1914 48.4079 23.9739 49.6671 24.0836C51.006 24.2001 52.1564 24.6375 53.1183 25.3958C54.0801 26.1541 54.7793 27.1625 55.2158 28.4211C55.6537 29.6638 55.7814 31.0561 55.599 32.5981L45.0549 31.6802ZM49.4132 27.0005C48.4249 26.9145 47.5551 27.1279 46.8038 27.6406C46.0698 28.1389 45.5531 28.8166 45.2536 29.6739L52.9047 30.3399C52.7953 29.3828 52.4128 28.6108 51.7573 28.0237C51.119 27.4221 50.3377 27.081 49.4132 27.0005ZM68.2239 25.8436L71.3322 26.1142L66.9024 39.3639L60.3033 38.7894L57.9667 24.9506L61.075 25.2212L63.0957 37.1535L64.4108 37.2679L68.2239 25.8436ZM75.3855 34.3207C75.4775 35.2923 75.8413 36.0949 76.4768 36.7284C77.1295 37.3473 77.9819 37.7026 79.034 37.7942C80.7236 37.9413 82.1194 37.4043 83.2215 36.1833L85.133 37.747C84.4087 38.8724 83.4869 39.6835 82.3676 40.1803C81.2483 40.6771 80.051 40.87 78.7759 40.759C77.5166 40.6493 76.3801 40.2372 75.3662 39.5226C74.3538 38.792 73.5753 37.865 73.0306 36.7415C72.5033 35.6035 72.2952 34.3969 72.4062 33.1218C72.5172 31.8466 72.9301 30.7021 73.6447 29.6882C74.3752 28.6758 75.3016 27.9052 76.4236 27.3765C77.5471 26.8319 78.7385 26.6144 79.9977 26.724C81.3366 26.8406 82.487 27.278 83.4489 28.0363C84.4107 28.7946 85.1099 29.803 85.5464 31.0616C85.9843 32.3043 86.112 33.6966 85.9296 35.2386L75.3855 34.3207ZM79.7438 29.641C78.7555 29.555 77.8857 29.7683 77.1344 30.2811C76.4004 30.7793 75.8837 31.4571 75.5842 32.3143L83.2353 32.9804C83.1259 32.0233 82.7434 31.2512 82.0878 30.6642C81.4496 30.0625 80.6683 29.7215 79.7438 29.641ZM89.5082 22.0593L92.4969 22.3195L90.8317 41.4471L87.843 41.1869L89.5082 22.0593ZM103.845 23.3074L102.937 33.7319C102.812 35.1665 102.865 36.3114 103.096 37.1666C103.327 38.0219 103.745 38.6606 104.35 39.0827C104.973 39.4902 105.819 39.7405 106.887 39.8335C107.923 39.9237 108.751 39.8191 109.371 39.5198C110.009 39.2059 110.499 38.6543 110.84 37.865C111.199 37.0611 111.442 35.9339 111.568 34.4834L112.476 24.0588L115.465 24.319L114.557 34.7435C114.388 36.6882 114.033 38.2714 113.493 39.4932C112.969 40.7163 112.152 41.6168 111.042 42.1947C109.947 42.774 108.476 42.9831 106.627 42.8222C104.698 42.6543 103.22 42.1964 102.193 41.4485C101.167 40.6847 100.494 39.6544 100.173 38.3577C99.8527 37.061 99.7777 35.4323 99.9484 33.4718L100.856 23.0472L103.845 23.3074ZM126.567 30.7782C127.683 30.8754 128.66 31.2816 129.497 31.9969C130.35 32.7136 130.991 33.6527 131.42 34.8143C131.85 35.9599 132.005 37.2181 131.886 38.5889C131.782 39.7844 131.422 40.8773 130.806 41.8676C130.189 42.8579 129.4 43.6243 128.437 44.1668C127.476 44.6935 126.445 44.9089 125.346 44.8131C123.943 44.691 122.821 44.1999 121.981 43.3398C121.14 42.4796 120.656 41.2169 120.528 39.5515L120.121 39.5161L119.557 48.766L116.496 48.4996L118.091 30.1848L121.151 30.4513L120.527 34.8537L121.005 34.8954C121.453 33.4407 122.157 32.3617 123.118 31.6584C124.095 30.9564 125.244 30.6631 126.567 30.7782ZM124.558 41.685C125.323 41.7517 126.023 41.644 126.658 41.362C127.293 41.0799 127.802 40.6666 128.187 40.1219C128.589 39.5627 128.822 38.9164 128.886 38.1832C128.987 37.0196 128.695 36.0386 128.01 35.2401C127.326 34.4258 126.402 33.9679 125.239 33.8666C124.505 33.8028 123.821 33.9119 123.186 34.1939C122.552 34.4759 122.026 34.8878 121.609 35.4297C121.209 35.973 120.978 36.5874 120.919 37.2728C120.858 37.9742 120.975 38.6589 121.27 39.327C121.567 39.9792 122.001 40.5229 122.573 40.9582C123.163 41.3789 123.825 41.6212 124.558 41.685ZM136.431 36.5033C135.889 36.4561 135.443 36.2325 135.092 35.8326C134.759 35.4181 134.616 34.9399 134.663 34.398C134.709 33.872 134.931 33.4416 135.329 33.1069C135.744 32.7736 136.222 32.6305 136.764 32.6777C137.29 32.7235 137.72 32.9457 138.055 33.3442C138.39 33.7427 138.534 34.205 138.488 34.731C138.441 35.273 138.218 35.7193 137.818 36.0699C137.419 36.4046 136.957 36.5491 136.431 36.5033ZM135.661 45.3498C135.119 45.3026 134.673 45.0791 134.322 44.6792C133.989 44.2647 133.846 43.7865 133.893 43.2445C133.939 42.7185 134.161 42.2882 134.559 41.9535C134.974 41.6202 135.452 41.4771 135.994 41.5243C136.52 41.5701 136.95 41.7922 137.285 42.1908C137.62 42.5893 137.764 43.0515 137.718 43.5776C137.671 44.1195 137.448 44.5658 137.048 44.9164C136.649 45.2511 136.187 45.3956 135.661 45.3498ZM150.779 27.3933L153.186 42.6355L158.502 28.0656L161.586 28.3341L163.993 43.5763L169.309 29.0064L172.393 29.2749L165.229 47.9239L161.905 47.6345L159.561 33.0483L154.421 46.983L151.098 46.6937L147.694 27.1248L150.779 27.3933ZM174.293 42.9312C174.385 43.9028 174.748 44.7054 175.384 45.3389C176.037 45.9578 176.889 46.3131 177.941 46.4047C179.631 46.5518 181.027 46.0148 182.129 44.7938L184.04 46.3575C183.316 47.4829 182.394 48.294 181.275 48.7908C180.155 49.2876 178.958 49.4805 177.683 49.3695C176.424 49.2598 175.287 48.8477 174.273 48.1331C173.261 47.4025 172.482 46.4755 171.938 45.352C171.411 44.214 171.202 43.0074 171.313 41.7323C171.424 40.4571 171.837 39.3126 172.552 38.2987C173.282 37.2863 174.209 36.5157 175.331 35.987C176.454 35.4424 177.646 35.2249 178.905 35.3345C180.244 35.4511 181.394 35.8885 182.356 36.6468C183.318 37.4051 184.017 38.4135 184.454 39.6721C184.891 40.9148 185.019 42.3071 184.837 43.8491L174.293 42.9312ZM178.651 38.2515C177.663 38.1655 176.793 38.3788 176.042 38.8916C175.308 39.3898 174.791 40.0676 174.491 40.9248L182.142 41.5909C182.033 40.6338 181.651 39.8617 180.995 39.2747C180.357 38.673 179.575 38.332 178.651 38.2515ZM188.415 30.6698L191.404 30.93L189.739 50.0576L186.75 49.7975L188.415 30.6698ZM205.572 48.2319C204.107 50.4813 201.852 51.4736 198.808 51.2085C197.549 51.0989 196.428 50.6882 195.446 49.9763C194.481 49.2499 193.751 48.3271 193.254 47.2078C192.774 46.0739 192.59 44.8694 192.701 43.5942C192.812 42.319 193.201 41.1724 193.868 40.1544C194.552 39.1219 195.431 38.3392 196.506 37.8063C197.596 37.2749 198.77 37.064 200.03 37.1736C201.592 37.3096 202.902 37.7529 203.961 38.5036C205.02 39.2542 205.807 40.2703 206.322 41.5518L203.813 42.9716C203.285 42.0262 202.725 41.3591 202.132 40.9703C201.557 40.5669 200.847 40.3284 200.002 40.2548C198.855 40.1549 197.882 40.4397 197.085 41.1091C196.304 41.7798 195.863 42.697 195.762 43.8606C195.655 45.088 195.929 46.0915 196.584 46.8713C197.24 47.6351 198.15 48.0676 199.313 48.1689C200.891 48.3063 202.22 47.7153 203.298 46.3958L205.572 48.2319ZM214.617 52.5848C213.358 52.4752 212.238 52.0565 211.257 51.3287C210.277 50.6009 209.531 49.6607 209.021 48.5081C208.527 47.357 208.337 46.1278 208.451 44.8208C208.563 43.5297 208.962 42.3678 209.646 41.3353C210.346 40.3041 211.242 39.5148 212.333 38.9674C213.425 38.42 214.6 38.2012 215.86 38.3108C217.119 38.4204 218.239 38.8391 219.219 39.5669C220.2 40.2947 220.938 41.2262 221.433 42.3614C221.929 43.4967 222.12 44.7099 222.008 46.001C221.894 47.308 221.494 48.4858 220.809 49.5343C220.123 50.5828 219.235 51.3808 218.143 51.9281C217.052 52.4755 215.876 52.6944 214.617 52.5848ZM214.875 49.62C216.023 49.7199 216.973 49.4092 217.727 48.6878C218.481 47.9505 218.912 46.9761 219.017 45.7647C219.122 44.5533 218.867 43.5272 218.249 42.6865C217.632 41.8458 216.749 41.3755 215.601 41.2756C214.47 41.177 213.519 41.4957 212.748 42.2317C211.978 42.9517 211.542 43.9094 211.438 45.1049C211.332 46.3163 211.595 47.351 212.227 48.2091C212.861 49.0512 213.743 49.5215 214.875 49.62ZM228.046 39.733L226.989 44.1219L227.563 44.1719C228.082 42.4504 228.851 41.2727 229.87 40.6387C230.889 40.0047 232.004 39.7404 233.216 39.8458C234.602 39.9666 235.65 40.4753 236.359 41.3722C237.085 42.2545 237.349 43.466 237.151 45.0066L237.725 45.0565C238.244 43.3351 239.013 42.1573 240.032 41.5233C241.051 40.8893 242.166 40.625 243.377 40.7305C245.019 40.8734 246.214 41.5395 246.961 42.7288C247.725 43.9196 247.987 45.8937 247.747 48.6513L247.189 55.059L244.224 54.8009L244.782 48.3932C245.039 45.4443 244.099 43.8769 241.963 43.691C240.704 43.5813 239.686 43.9264 238.91 44.7261C238.135 45.5098 237.678 46.6987 237.539 48.2926L237.027 54.1744L234.063 53.9163L234.62 47.5085C234.877 44.5597 233.938 42.9923 231.802 42.8063C230.542 42.6967 229.525 43.0417 228.748 43.8414C227.973 44.6252 227.517 45.814 227.378 47.408L226.866 53.2898L223.805 53.0233L224.986 39.4666L228.046 39.733ZM253.143 49.7956C253.235 50.7672 253.599 51.5698 254.234 52.2033C254.887 52.8222 255.739 53.1775 256.791 53.2691C258.481 53.4162 259.877 52.8792 260.979 51.6582L262.89 53.2219C262.166 54.3473 261.244 55.1584 260.125 55.6552C259.006 56.152 257.808 56.3449 256.533 56.2339C255.274 56.1242 254.137 55.7121 253.124 54.9975C252.111 54.2669 251.333 53.3399 250.788 52.2165C250.261 51.0784 250.053 49.8718 250.164 48.5967C250.275 47.3215 250.687 46.177 251.402 45.1631C252.133 44.1507 253.059 43.3801 254.181 42.8514C255.304 42.3068 256.496 42.0893 257.755 42.199C259.094 42.3155 260.244 42.7529 261.206 43.5112C262.168 44.2695 262.867 45.2779 263.304 46.5365C263.742 47.7792 263.869 49.1715 263.687 50.7135L253.143 49.7956ZM257.501 45.1159C256.513 45.0299 255.643 45.2433 254.892 45.756C254.158 46.2543 253.641 46.932 253.342 47.7892L260.993 48.4553C260.883 47.4982 260.501 46.7261 259.845 46.1391C259.207 45.5375 258.426 45.1964 257.501 45.1159ZM40.4052 66.1669L37.3687 65.9025L39.0339 46.7749L46.6371 47.4368C49.0918 47.6505 51.1092 48.2758 52.6892 49.3127C54.2852 50.3511 54.9805 52.0498 54.7751 54.4088C54.5933 56.4969 53.6108 57.9131 51.8275 58.6572C50.0443 59.4014 47.9651 59.67 45.5901 59.4633L41.0234 59.0657L40.4052 66.1669ZM45.8441 56.5463C47.5974 56.699 48.9312 56.5983 49.8453 56.2442C50.7609 55.8742 51.2672 55.1313 51.3644 54.0156C51.4601 52.9157 51.0825 52.0878 50.2315 51.5319C49.3805 50.976 48.0942 50.6232 46.3728 50.4733L41.806 50.0757L41.2773 56.1488L45.8441 56.5463ZM57.7132 48.401L60.7019 48.6612L59.0367 67.7889L56.048 67.5287L57.7132 48.401ZM69.7828 54.9444C72.0303 55.1401 73.6581 55.8118 74.6664 56.9596C75.676 58.0914 76.0893 59.7094 75.9061 61.8134L75.2629 69.2015L72.322 68.9454L73.1999 64.3964L72.8412 64.3652C71.9815 67.5988 70.1171 69.0908 67.248 68.841C65.6062 68.698 64.4094 68.2405 63.6575 67.4684C62.9056 66.6963 62.5859 65.6647 62.6983 64.3736C62.819 62.9868 63.4633 61.9508 64.6311 61.2655C65.799 60.5802 67.419 60.3277 69.4911 60.5081L72.9819 60.812C72.8961 59.9533 72.5676 59.2984 71.9966 58.8472C71.4429 58.3814 70.6162 58.1006 69.5163 58.0049C68.7512 57.9383 68.0918 58.0415 67.538 58.3145C66.9856 58.5715 66.4419 59.006 65.9068 59.6179L63.6117 57.7558C64.4725 56.7226 65.3975 55.968 66.3865 55.492C67.3914 55.0173 68.5235 54.8348 69.7828 54.9444ZM67.9708 65.7962C69.3097 65.9128 70.3628 65.7153 71.13 65.204C71.8973 64.6926 72.4251 63.8873 72.7135 62.7882L69.3184 62.4926C68.1707 62.3927 67.3127 62.4706 66.7444 62.7263C66.1775 62.966 65.8676 63.3887 65.8149 63.9944C65.7733 64.4726 65.9306 64.8798 66.2867 65.216C66.6443 65.5362 67.2057 65.7296 67.9708 65.7962ZM91.097 67.3758C89.6324 69.6253 87.3779 70.6175 84.3334 70.3525C83.0742 70.2428 81.9536 69.8321 80.9716 69.1203C80.007 68.3939 79.2762 67.471 78.7794 66.3517C78.3 65.2178 78.1157 64.0133 78.2268 62.7382C78.3378 61.463 78.7267 60.3164 79.3935 59.2984C80.0776 58.2658 80.9568 57.4831 82.0311 56.9503C83.1213 56.4188 84.296 56.2079 85.5552 56.3175C87.1173 56.4535 88.4278 56.8969 89.4867 57.6475C90.5456 58.3982 91.3324 59.4143 91.8472 60.6957L89.3386 62.1155C88.8106 61.1702 88.2504 60.5031 87.6579 60.1142C87.0827 59.7108 86.3727 59.4723 85.5279 59.3988C84.3802 59.2989 83.4079 59.5836 82.6108 60.253C81.8297 60.9238 81.3885 61.841 81.2872 63.0046C81.1803 64.2319 81.4543 65.2355 82.1092 66.0152C82.7654 66.779 83.6753 67.2116 84.8389 67.3129C86.417 67.4502 87.7452 66.8592 88.8237 65.5398L91.097 67.3758ZM96.2195 65.2441C96.3116 66.2157 96.6754 67.0183 97.3108 67.6518C97.9636 68.2707 98.816 68.626 99.868 68.7176C101.558 68.8647 102.953 68.3277 104.056 67.1067L105.967 68.6704C105.243 69.7958 104.321 70.6069 103.202 71.1037C102.082 71.6005 100.885 71.7934 99.6099 71.6824C98.3507 71.5728 97.2142 71.1606 96.2003 70.446C95.1879 69.7155 94.4093 68.7884 93.8647 67.665C93.3374 66.527 93.1293 65.3204 93.2403 64.0452C93.3513 62.77 93.7641 61.6255 94.4787 60.6116C95.2093 59.5992 96.1356 58.8286 97.2577 58.3C98.3812 57.7553 99.5725 57.5378 100.832 57.6475C102.171 57.764 103.321 58.2014 104.283 58.9597C105.245 59.718 105.944 60.7264 106.38 61.985C106.818 63.2277 106.946 64.62 106.764 66.162L96.2195 65.2441ZM100.578 60.5644C99.5896 60.4784 98.7198 60.6918 97.9685 61.2045C97.2345 61.7028 96.7178 62.3805 96.4183 63.2378L104.069 63.9038C103.96 62.9467 103.577 62.1747 102.922 61.5876C102.284 60.986 101.502 60.6449 100.578 60.5644ZM112.918 58.8201L111.861 63.209L112.435 63.2589C112.954 61.5375 113.723 60.3597 114.742 59.7257C115.761 59.0917 116.876 58.8274 118.087 58.9329C119.474 59.0536 120.522 59.5624 121.231 60.4592C121.957 61.3416 122.221 62.553 122.023 64.0936L122.596 64.1436C123.116 62.4221 123.885 61.2444 124.904 60.6103C125.922 59.9763 127.038 59.712 128.249 59.8175C129.891 59.9604 131.086 60.6265 131.833 61.8159C132.597 63.0066 132.859 64.9807 132.618 67.7383L132.061 74.1461L129.096 73.888L129.654 67.4802C129.91 64.5313 128.971 62.964 126.835 62.778C125.576 62.6684 124.558 63.0134 123.782 63.8131C123.007 64.5968 122.55 65.7857 122.411 67.3797L121.899 73.2614L118.934 73.0033L119.492 66.5956C119.749 63.6467 118.809 62.0793 116.673 61.8934C115.414 61.7838 114.396 62.1288 113.62 62.9285C112.845 63.7122 112.388 64.9011 112.25 66.4951L111.738 72.3768L108.677 72.1104L109.857 58.5536L112.918 58.8201ZM138.015 68.8826C138.107 69.8543 138.47 70.6568 139.106 71.2903C139.759 71.9093 140.611 72.2645 141.663 72.3561C143.353 72.5032 144.749 71.9662 145.851 70.7452L147.762 72.3089C147.038 73.4343 146.116 74.2454 144.997 74.7422C143.877 75.239 142.68 75.4319 141.405 75.3209C140.146 75.2113 139.009 74.7992 137.995 74.0845C136.983 73.354 136.204 72.427 135.66 71.3035C135.132 70.1655 134.924 68.9589 135.035 67.6837C135.146 66.4085 135.559 65.264 136.274 64.2502C137.004 63.2377 137.931 62.4672 139.053 61.9385C140.176 61.3939 141.368 61.1764 142.627 61.286C143.966 61.4026 145.116 61.84 146.078 62.5983C147.04 63.3565 147.739 64.365 148.176 65.6236C148.613 66.8662 148.741 68.2585 148.559 69.8005L138.015 68.8826ZM142.373 64.203C141.385 64.1169 140.515 64.3303 139.764 64.8431C139.03 65.3413 138.513 66.019 138.213 66.8763L145.864 67.5424C145.755 66.5853 145.373 65.8132 144.717 65.2261C144.079 64.6245 143.297 64.2834 142.373 64.203ZM159.691 62.5547C161.588 62.7199 162.955 63.4331 163.793 64.6945C164.647 65.9573 164.959 67.9038 164.73 70.5338L164.172 76.9416L161.208 76.6835L161.765 70.2757C161.897 68.7614 161.707 67.6207 161.196 66.8534C160.685 66.0862 159.807 65.6485 158.564 65.5402C157.305 65.4306 156.271 65.7742 155.463 66.5712C154.656 67.3521 154.183 68.5396 154.045 70.1336L153.533 76.0153L150.472 75.7489L151.65 62.2161L154.711 62.4825L153.656 66.8475L154.11 66.8871C154.413 65.6285 154.817 64.676 155.323 64.0294C155.83 63.3669 156.43 62.9373 157.121 62.7406C157.83 62.5293 158.687 62.4673 159.691 62.5547ZM172.788 70.6331C172.665 72.0517 172.653 73.0143 172.754 73.521C172.854 74.0276 173.161 74.3755 173.675 74.5648C174.206 74.7395 175.244 74.8941 176.79 75.0287L176.53 78.0174C174.171 77.812 172.506 77.4744 171.535 77.0044C170.564 76.5344 169.982 75.8413 169.789 74.9251C169.613 73.9943 169.616 72.4769 169.8 70.3729L170.101 66.906L167.471 66.677L167.738 63.6166L170.368 63.8456L170.772 59.2071L173.76 59.4673L173.357 64.1058L177.684 64.4825L177.418 67.5429L173.09 67.1662L172.788 70.6331ZM201.545 60.9225L201.285 63.9112L195.284 63.3888L193.879 79.5277L190.89 79.2675L192.295 63.1286L186.294 62.6061L186.552 59.6414L192.553 60.1638L192.555 60.1399L201.545 60.9225ZM203.439 74.5782C203.531 75.5499 203.895 76.3524 204.53 76.9859C205.183 77.6049 206.035 77.9602 207.088 78.0517C208.777 78.1988 210.173 77.6619 211.275 76.4408L213.187 78.0045C212.462 79.1299 211.54 79.9411 210.421 80.4378C209.302 80.9346 208.105 81.1275 206.829 81.0165C205.57 80.9069 204.434 80.4948 203.42 79.7802C202.407 79.0496 201.629 78.1226 201.084 76.9991C200.557 75.8611 200.349 74.6545 200.46 73.3793C200.571 72.1041 200.984 70.9596 201.698 69.9458C202.429 68.9333 203.355 68.1628 204.477 67.6341C205.601 67.0895 206.792 66.872 208.051 66.9816C209.39 67.0982 210.541 67.5356 211.502 68.2939C212.464 69.0521 213.163 70.0606 213.6 71.3192C214.038 72.5618 214.166 73.9542 213.983 75.4962L203.439 74.5782ZM207.797 69.8986C206.809 69.8125 205.939 70.0259 205.188 70.5387C204.454 71.0369 203.937 71.7146 203.638 72.5719L211.289 73.238C211.179 72.2809 210.797 71.5088 210.141 70.9217C209.503 70.3201 208.722 69.9791 207.797 69.8986ZM219.195 76.7689C219.512 77.5514 219.94 78.1669 220.479 78.6153C221.036 79.0492 221.768 79.3057 222.677 79.3848C224.621 79.5541 225.63 79.2163 225.704 78.3715C225.74 77.9571 225.577 77.6216 225.213 77.3652C224.85 77.1087 224.136 76.8297 223.07 76.5281L222.224 76.2858C220.436 75.7929 219.165 75.1684 218.412 74.4122C217.66 73.6401 217.334 72.6802 217.434 71.5325C217.492 70.863 217.737 70.266 218.168 69.7414C218.615 69.2182 219.26 68.8246 220.102 68.5607C220.961 68.2822 221.997 68.1956 223.208 68.3011C224.77 68.4371 225.986 68.8641 226.855 69.5822C227.725 70.2843 228.408 71.2914 228.904 72.6033L226.24 73.6C225.844 72.7947 225.397 72.2177 224.897 71.869C224.399 71.5044 223.751 71.2875 222.954 71.2181C222.061 71.1404 221.406 71.1957 220.988 71.3842C220.588 71.5581 220.372 71.8204 220.342 72.1711C220.31 72.5377 220.436 72.8378 220.721 73.0714C221.022 73.3063 221.594 73.5569 222.438 73.8231L223.284 74.0654C224.759 74.4669 225.886 74.9022 226.664 75.3715C227.458 75.8421 227.992 76.3543 228.265 76.9081C228.539 77.4459 228.644 78.0814 228.58 78.8147C228.522 79.4841 228.259 80.1116 227.79 80.6972C227.339 81.2682 226.658 81.7069 225.748 82.0131C224.838 82.3193 223.73 82.4155 222.423 82.3018C220.813 82.1616 219.524 81.7443 218.557 81.0497C217.607 80.3407 216.825 79.2608 216.213 77.8103L219.195 76.7689ZM235.995 76.1356C235.871 77.5542 235.86 78.5168 235.96 79.0235C236.06 79.5301 236.367 79.878 236.881 80.0673C237.412 80.242 238.45 80.3966 239.996 80.5312L239.736 83.5199C237.377 83.3145 235.712 82.9769 234.741 82.5069C233.77 82.0369 233.188 81.3438 232.995 80.4276C232.819 79.4968 232.823 77.9794 233.006 75.8754L233.308 72.4085L230.678 72.1795L230.944 69.1191L233.574 69.3481L233.978 64.7096L236.967 64.9698L236.563 69.6083L240.89 69.985L240.624 73.0454L236.296 72.6687L235.995 76.1356Z" fill="#0E4486"/>
</svg>
