<svg width="64" height="64" viewBox="0 0 64 64" fill="none" xmlns="http://www.w3.org/2000/svg">
<circle cx="31.6593" cy="31.6593" r="25.909" transform="rotate(-14.7736 31.6593 31.6593)" fill="#EB5A21"/>
<path d="M16.4468 47.6363L10.5469 25.2641L18.2635 23.2291L18.9152 25.7007L14.8769 26.7657C14.5533 26.8458 14.2177 26.8646 13.8874 26.8212C13.5507 26.7704 13.2285 26.6501 12.9414 26.468C13.2253 26.6558 13.4675 26.8996 13.653 27.1843C13.8681 27.4355 14.0257 27.7305 14.1148 28.0487L18.1675 43.4159C18.2466 43.741 18.2561 44.0791 18.1954 44.4084C18.1417 44.7375 18.0297 45.0546 17.8646 45.3448C18.0341 45.0594 18.258 44.8096 18.5235 44.6095C18.7833 44.3984 19.0983 44.2954 19.4218 44.2082L23.5116 43.1297L24.1634 45.6012L16.4468 47.6363Z" fill="white"/>
<path d="M19.7451 27.5627L22.3945 26.8641L23.0125 29.2076C23.1186 29.54 23.2076 29.8777 23.2793 30.2192C23.302 30.5786 23.3052 30.939 23.2889 31.2988L23.2827 30.232C23.282 29.8798 23.3233 29.5287 23.4057 29.186C23.5892 28.2522 24.0406 27.391 24.7052 26.7067C25.2877 26.1114 26.022 25.6856 26.8289 25.4755C27.3632 25.3209 27.9205 25.262 28.475 25.3016C28.9288 25.3486 29.371 25.4729 29.7824 25.6691C30.1539 25.8441 30.4944 26.0781 30.7904 26.362C31.0679 26.6436 31.3118 26.9561 31.5175 27.2934C31.6982 27.5981 31.8397 27.9243 31.9386 28.2643C32.0542 28.594 32.1434 28.9323 32.2054 29.276C32.0883 28.638 32.074 27.9852 32.1631 27.3422C32.2326 26.7197 32.4075 26.1132 32.6805 25.5485C32.9347 24.9869 33.3033 24.4839 33.7628 24.0715C34.2777 23.6428 34.8843 23.3376 35.5358 23.1793C36.1722 22.9507 36.8587 22.8996 37.5214 23.0314C38.1841 23.1632 38.7976 23.473 39.2957 23.9272C40.3969 25.1289 41.152 26.6047 41.4815 28.1994L43.4741 35.755L40.8633 36.4435L39.0193 29.4514C38.8068 28.3818 38.303 27.3917 37.563 26.5893C37.2854 26.318 36.9398 26.1259 36.5621 26.0328C36.1844 25.9397 35.7884 25.9491 35.4152 26.06C35.0293 26.1708 34.6665 26.35 34.3442 26.589C33.9392 26.9092 33.6232 27.3273 33.4265 27.8035C33.1478 28.4526 32.9952 29.1481 32.9767 29.8533C32.9346 30.8978 33.0613 31.942 33.352 32.9457L34.7029 38.0681L32.1307 38.7464L30.2867 31.7543C30.0781 30.6718 29.5892 29.6629 28.8684 28.8275C28.5993 28.5644 28.2632 28.3796 27.8961 28.293C27.5291 28.2064 27.1451 28.2212 26.7854 28.3358C26.3427 28.4648 25.9331 28.6881 25.5853 28.9904C25.2374 29.2926 24.9596 29.6665 24.771 30.0861C24.4737 30.7361 24.3035 31.4364 24.2698 32.1495C24.2052 33.1956 24.3191 34.2446 24.6065 35.252L25.9574 40.3744L23.3081 41.0731L19.7451 27.5627Z" fill="white"/>
<path d="M38.9463 17.7751L46.6629 15.7401L52.5628 38.1122L44.8462 40.1473L44.1944 37.6757L48.2585 36.6039C48.579 36.5228 48.9128 36.5094 49.2385 36.5646C49.5682 36.6078 49.8861 36.7147 50.1744 36.8794C49.8914 36.7068 49.6419 36.485 49.4377 36.2245C49.2327 35.962 49.0792 35.6632 48.9854 35.3439L44.9328 19.9767C44.84 19.6436 44.8183 19.2947 44.869 18.9525C44.9109 18.6235 45.0191 18.3062 45.1869 18.0195C45.027 18.3195 44.806 18.583 44.5381 18.7932C44.2768 18.9929 43.9797 19.141 43.6628 19.2295L39.6116 20.2979L38.9463 17.7751Z" fill="white"/>
</svg>
